<svg width="244" height="244" viewBox="0 0 244 244" fill="none" xmlns="http://www.w3.org/2000/svg">
<rect width="244" height="244" rx="122" fill="url(#paint0_linear)"/>
<path d="M187.094 106.594H137.406V56.9062C137.406 48.673 130.733 42 122.5 42C114.267 42 107.594 48.673 107.594 56.9062V106.594H57.9062C49.673 106.594 43 113.267 43 121.5C43 129.733 49.673 136.406 57.9062 136.406H107.594V186.094C107.594 194.327 114.267 201 122.5 201C130.733 201 137.406 194.327 137.406 186.094V136.406H187.094C195.327 136.406 202 129.733 202 121.5C202 113.267 195.327 106.594 187.094 106.594Z" fill="white"/>
<defs>
<linearGradient id="paint0_linear" x1="0" y1="0" x2="244" y2="244" gradientUnits="userSpaceOnUse">
<stop stop-color="#F27A54"/>
<stop offset="1" stop-color="#A154F2"/>
</linearGradient>
</defs>
</svg>
