<svg width="76" height="76" viewBox="0 0 76 76" fill="none" xmlns="http://www.w3.org/2000/svg">
<path d="M75.15 37.575C75.15 58.3268 58.3268 75.15 37.575 75.15C16.8232 75.15 0 58.3268 0 37.575C0 16.8232 16.8232 0 37.575 0C58.3268 0 75.15 16.8232 75.15 37.575Z" fill="#FFCC4D"/>
<path fill-rule="evenodd" clip-rule="evenodd" d="M2.58848 23.0001C3.08948 23.499 5.5903 24.9978 6.08922 26.4966C6.59022 27.9934 7.59222 36.4832 10.594 38.982C13.6898 41.5538 25.3673 40.5977 27.603 39.483C32.6067 36.9884 33.2205 30.0245 34.1056 26.4966C34.6045 24.4989 37.6063 24.4989 37.6063 24.4989C37.6063 24.4989 40.6081 24.4989 41.1091 26.4945C41.9942 30.0245 42.6121 36.9884 47.6117 39.4809C49.8495 40.5977 61.5269 41.5559 64.6269 38.9841C67.6245 36.4853 68.6244 27.9955 69.1254 26.4966C69.6223 24.9999 72.1273 23.5011 72.6262 23.0022C73.1293 22.5032 73.1293 20.5055 72.6262 20.0045C71.6263 19.0067 59.8215 18.1174 47.1107 19.5056C44.5744 19.7832 43.6099 20.5034 37.6042 20.5034C31.6026 20.5034 30.634 19.7811 28.0998 19.5056C15.3974 18.1153 3.59048 19.0046 2.58848 20.0024C2.08957 20.5013 2.08957 22.5012 2.58848 23.0001V23.0001Z" fill="#292F33"/>
<path d="M57.0618 49.3256C56.6903 48.9895 56.135 48.9686 55.7363 49.265C55.6549 49.3256 47.5491 55.3188 37.575 55.3188C27.626 55.3188 19.4931 49.3256 19.4138 49.265C19.0151 48.9686 18.4598 48.9937 18.0882 49.3256C17.7187 49.6596 17.6352 50.2107 17.892 50.6365C18.1613 51.0853 24.6075 61.5813 37.575 61.5813C50.5426 61.5813 56.9909 51.0853 57.2581 50.6365C57.5148 50.2086 57.4334 49.6596 57.0618 49.3256V49.3256Z" fill="#664500"/>
</svg>
