<svg width="88" height="88" viewBox="0 0 88 88" fill="none" xmlns="http://www.w3.org/2000/svg">
<g filter="url(#filter0_d)">
<path d="M79.1492 41.5746C79.1492 62.3262 62.3262 79.1492 41.5746 79.1492C20.823 79.1492 4 62.3262 4 41.5746C4 20.823 20.823 4 41.5746 4C62.3262 4 79.1492 20.823 79.1492 41.5746Z" fill="#FFCC4D"/>
<path d="M18.6123 52.012C24.3767 52.012 29.0497 47.339 29.0497 41.5746C29.0497 35.8102 24.3767 31.1372 18.6123 31.1372C12.8479 31.1372 8.17493 35.8102 8.17493 41.5746C8.17493 47.339 12.8479 52.012 18.6123 52.012Z" fill="#FF7892"/>
<path d="M64.5368 52.012C70.3012 52.012 74.9742 47.339 74.9742 41.5746C74.9742 35.8102 70.3012 31.1372 64.5368 31.1372C58.7724 31.1372 54.0994 35.8102 54.0994 41.5746C54.0994 47.339 58.7724 52.012 64.5368 52.012Z" fill="#FF7892"/>
<path d="M61.0612 49.1501C60.6896 48.814 60.1343 48.7931 59.7356 49.0895C59.6542 49.1501 51.5485 55.1432 41.5746 55.1432C31.6257 55.1432 23.4929 49.1501 23.4135 49.0895C23.0148 48.7931 22.4596 48.8182 22.088 49.1501C21.7185 49.4841 21.635 50.0352 21.8918 50.461C22.1611 50.9098 28.6072 61.4056 41.5746 61.4056C54.542 61.4056 60.9902 50.9098 61.2574 50.461C61.5142 50.0331 61.4327 49.4841 61.0612 49.1501ZM20.6977 35.3122C20.3846 35.3122 20.0652 35.2412 19.7667 35.0909C18.7355 34.5753 18.318 33.3207 18.8336 32.2895C18.9422 32.0724 21.5849 26.9623 29.0497 26.9623C36.5166 26.9623 39.1573 32.0745 39.2658 32.2916C39.7814 33.3228 39.364 34.5774 38.3327 35.093C37.3057 35.6044 36.0678 35.1953 35.5439 34.1829C35.4541 34.0159 33.8113 31.1372 29.0497 31.1372C24.213 31.1372 22.5806 34.1286 22.566 34.1578C22.2007 34.8905 21.4638 35.3122 20.6977 35.3122ZM62.4514 35.3122C61.6853 35.3122 60.9485 34.8905 60.5811 34.1578C60.5289 34.0618 58.8986 31.1372 54.0994 31.1372C49.3003 31.1372 47.67 34.0618 47.6032 34.1849C47.0605 35.189 45.8101 35.5836 44.7956 35.0617C43.7831 34.5356 43.3719 33.3103 43.8812 32.2895C43.9898 32.0745 46.6325 26.9623 54.0994 26.9623C61.5663 26.9623 64.2091 32.0745 64.3176 32.2916C64.8332 33.3228 64.4158 34.5774 63.3845 35.093C63.0839 35.2412 62.7646 35.3122 62.4514 35.3122Z" fill="#664500"/>
</g>
<defs>
<filter id="filter0_d" x="0" y="0" width="87.1492" height="87.1492" filterUnits="userSpaceOnUse" color-interpolation-filters="sRGB">
<feFlood flood-opacity="0" result="BackgroundImageFix"/>
<feColorMatrix in="SourceAlpha" type="matrix" values="0 0 0 0 0 0 0 0 0 0 0 0 0 0 0 0 0 0 127 0"/>
<feOffset dx="2" dy="2"/>
<feGaussianBlur stdDeviation="3"/>
<feColorMatrix type="matrix" values="0 0 0 0 0 0 0 0 0 0 0 0 0 0 0 0 0 0 0.25 0"/>
<feBlend mode="normal" in2="BackgroundImageFix" result="effect1_dropShadow"/>
<feBlend mode="normal" in="SourceGraphic" in2="effect1_dropShadow" result="shape"/>
</filter>
</defs>
</svg>
