<svg width="120" height="120" viewBox="0 0 120 120" fill="none" xmlns="http://www.w3.org/2000/svg">
<path fill-rule="evenodd" clip-rule="evenodd" d="M60 120C93.1371 120 120 93.1371 120 60C120 26.8629 93.1371 0 60 0C26.8629 0 0 26.8629 0 60C0 93.1371 26.8629 120 60 120ZM39.6993 27.5188C39.6993 26.273 40.7091 25.2632 41.9549 25.2632C43.2006 25.2632 44.2105 26.273 44.2105 27.5188V91.5789C44.2105 92.8247 43.2006 93.8346 41.9549 93.8346C40.7091 93.8346 39.6993 92.8247 39.6993 91.5789V27.5188ZM32.9323 40.6015C31.6866 40.6015 30.6767 41.6114 30.6767 42.8571V74.4361C30.6767 75.6818 31.6866 76.6917 32.9323 76.6917C34.1781 76.6917 35.188 75.6818 35.188 74.4361V42.8571C35.188 41.6114 34.1781 40.6015 32.9323 40.6015ZM24.812 51.4286C23.5663 51.4286 22.5564 52.4385 22.5564 53.6842V65.4135C22.5564 66.6593 23.5663 67.6692 24.812 67.6692C26.0578 67.6692 27.0677 66.6593 27.0677 65.4135V53.6842C27.0677 52.4385 26.0578 51.4286 24.812 51.4286ZM50.0752 38.797C48.8294 38.797 47.8196 39.8069 47.8196 41.0526V78.0451C47.8196 79.2909 48.8294 80.3008 50.0752 80.3008C51.3209 80.3008 52.3308 79.2909 52.3308 78.0451V41.0526C52.3308 39.8069 51.3209 38.797 50.0752 38.797ZM55.9399 50.9774C55.9399 49.7317 56.9497 48.7218 58.1955 48.7218C59.4412 48.7218 60.4511 49.7317 60.4511 50.9774V68.1203C60.4511 69.3661 59.4412 70.3759 58.1955 70.3759C56.9497 70.3759 55.9399 69.3661 55.9399 68.1203V50.9774ZM66.3158 40.6015C65.07 40.6015 64.0602 41.6114 64.0602 42.8571V76.2406C64.0602 77.4864 65.07 78.4962 66.3158 78.4962C67.5616 78.4962 68.5714 77.4864 68.5714 76.2406V42.8571C68.5714 41.6114 67.5616 40.6015 66.3158 40.6015ZM73.0827 50.0752C73.0827 48.8294 74.0926 47.8195 75.3384 47.8195C76.5841 47.8195 77.594 48.8294 77.594 50.0752V69.0226C77.594 70.2683 76.5841 71.2782 75.3384 71.2782C74.0926 71.2782 73.0827 70.2683 73.0827 69.0226V50.0752ZM83.4587 40.6015C82.2129 40.6015 81.203 41.6114 81.203 42.8571V76.2406C81.203 77.4864 82.2129 78.4962 83.4587 78.4962C84.7044 78.4962 85.7143 77.4864 85.7143 76.2406V42.8571C85.7143 41.6114 84.7044 40.6015 83.4587 40.6015ZM89.3233 50.0752C89.3233 48.8294 90.3332 47.8195 91.579 47.8195C92.8247 47.8195 93.8346 48.8294 93.8346 50.0752V69.0226C93.8346 70.2683 92.8247 71.2782 91.579 71.2782C90.3332 71.2782 89.3233 70.2683 89.3233 69.0226V50.0752ZM99.6993 51.4286C98.4535 51.4286 97.4436 52.4385 97.4436 53.6842V65.4135C97.4436 66.6593 98.4535 67.6692 99.6993 67.6692C100.945 67.6692 101.955 66.6593 101.955 65.4135V53.6842C101.955 52.4385 100.945 51.4286 99.6993 51.4286Z" fill="white"/>
</svg>
