<svg width="88" height="88" viewBox="0 0 88 88" fill="none" xmlns="http://www.w3.org/2000/svg">
<g filter="url(#filter0_d)">
<path d="M79.2983 41.5746C79.2983 62.3262 62.4754 79.1492 41.7238 79.1492C20.9721 79.1492 4.14917 62.3262 4.14917 41.5746C4.14917 20.823 20.9721 4 41.7238 4C62.4754 4 79.2983 20.823 79.2983 41.5746Z" fill="#FFCC4D"/>
<path d="M53.1736 64.2842C53.1506 64.1924 50.7834 55.1432 41.7238 55.1432C32.6641 55.1432 30.2969 64.1924 30.274 64.2842C30.1633 64.7289 30.3658 65.1839 30.7583 65.4198C31.1507 65.6536 31.6621 65.5993 32.0024 65.2946C32.0212 65.2779 34.117 63.4931 41.7238 63.4931C49.2178 63.4931 51.3617 65.2257 51.4431 65.2946C51.6414 65.4824 51.9002 65.5806 52.1612 65.5806C52.3365 65.5806 52.5139 65.5367 52.6747 65.447C53.0838 65.2132 53.2884 64.7393 53.1736 64.2842ZM36.9288 40.7354C36.9017 40.7542 34.2944 42.6183 29.1989 42.6183C24.1013 42.6183 21.4961 40.7542 21.4753 40.7396C21.0703 40.4348 20.5025 40.464 20.1309 40.8168C19.7614 41.1654 19.6967 41.7311 19.9806 42.1549C20.108 42.3428 23.1431 46.7933 29.1989 46.7933C35.2526 46.7933 38.2899 42.3428 38.4172 42.1528C38.6969 41.7311 38.6343 41.1717 38.269 40.821C37.9016 40.4682 37.3317 40.4369 36.9288 40.7354ZM63.3187 40.8231C62.9534 40.4703 62.3856 40.4348 61.9765 40.7354C61.9514 40.7542 59.3421 42.6183 54.2486 42.6183C49.1531 42.6183 46.5458 40.7542 46.525 40.7396C46.1221 40.4348 45.5522 40.464 45.1806 40.8168C44.8112 41.1654 44.7485 41.7311 45.0303 42.1549C45.1577 42.3428 48.1929 46.7933 54.2486 46.7933C60.3023 46.7933 63.3396 42.3428 63.4669 42.1528C63.7487 41.7332 63.684 41.1738 63.3187 40.8231ZM68.8631 37.3996C68.2264 37.3996 67.6022 37.1115 67.191 36.5646C61.678 29.2146 54.5388 29.0518 54.2361 29.0497C53.088 29.0372 52.1612 28.0978 52.1674 26.9518C52.1737 25.8016 53.1005 24.8748 54.2486 24.8748C54.6327 24.8748 63.7195 24.9791 70.531 34.0597C71.224 34.9823 71.0361 36.2912 70.1135 36.9821C69.7377 37.2639 69.2993 37.3996 68.8631 37.3996ZM14.5845 37.3996C14.1503 37.3996 13.7098 37.2639 13.3341 36.9821C12.4114 36.2912 12.2256 34.9823 12.9166 34.0597C19.7259 24.9791 28.8148 24.8748 29.1989 24.8748C30.3512 24.8748 31.2864 25.8099 31.2864 26.9622C31.2864 28.1124 30.3575 29.0455 29.2073 29.0497C28.8816 29.0539 21.7571 29.2292 16.2545 36.5646C15.8474 37.1115 15.2191 37.3996 14.5845 37.3996Z" fill="#664500"/>
<path d="M52.1611 52.012C65.1265 52.012 79.2983 60.3619 79.2983 70.7993C79.2983 79.1492 73.0359 79.1492 73.0359 79.1492C56.3361 79.1492 70.9484 60.3619 52.1611 52.012Z" fill="#5DADEC"/>
</g>
<defs>
<filter id="filter0_d" x="0.14917" y="0" width="87.1492" height="87.1492" filterUnits="userSpaceOnUse" color-interpolation-filters="sRGB">
<feFlood flood-opacity="0" result="BackgroundImageFix"/>
<feColorMatrix in="SourceAlpha" type="matrix" values="0 0 0 0 0 0 0 0 0 0 0 0 0 0 0 0 0 0 127 0"/>
<feOffset dx="2" dy="2"/>
<feGaussianBlur stdDeviation="3"/>
<feColorMatrix type="matrix" values="0 0 0 0 0 0 0 0 0 0 0 0 0 0 0 0 0 0 0.25 0"/>
<feBlend mode="normal" in2="BackgroundImageFix" result="effect1_dropShadow"/>
<feBlend mode="normal" in="SourceGraphic" in2="effect1_dropShadow" result="shape"/>
</filter>
</defs>
</svg>
