<svg width="101" height="44" viewBox="0 0 101 44" fill="none" xmlns="http://www.w3.org/2000/svg">
<path d="M0.106484 0.999997H10.1865C13.4665 0.999997 15.9265 1.88 17.5665 3.64C19.2065 5.4 20.0265 7.98 20.0265 11.38V32.62C20.0265 36.02 19.2065 38.6 17.5665 40.36C15.9265 42.12 13.4665 43 10.1865 43H0.106484V0.999997ZM10.0665 37C11.1465 37 11.9665 36.68 12.5265 36.04C13.1265 35.4 13.4265 34.36 13.4265 32.92V11.08C13.4265 9.64 13.1265 8.6 12.5265 7.96C11.9665 7.32 11.1465 7 10.0665 7H6.70648V37H10.0665ZM34.0215 43.6C30.7815 43.6 28.3015 42.68 26.5815 40.84C24.8615 39 24.0015 36.4 24.0015 33.04V10.96C24.0015 7.6 24.8615 5 26.5815 3.16C28.3015 1.32 30.7815 0.399998 34.0215 0.399998C37.2615 0.399998 39.7415 1.32 41.4615 3.16C43.1815 5 44.0415 7.6 44.0415 10.96V33.04C44.0415 36.4 43.1815 39 41.4615 40.84C39.7415 42.68 37.2615 43.6 34.0215 43.6ZM34.0215 37.6C36.3015 37.6 37.4415 36.22 37.4415 33.46V10.54C37.4415 7.78 36.3015 6.4 34.0215 6.4C31.7415 6.4 30.6015 7.78 30.6015 10.54V33.46C30.6015 36.22 31.7415 37.6 34.0215 37.6ZM48.5049 0.999997H57.9249L62.1249 31.06H62.2449L66.4449 0.999997H75.8649V43H69.6249V11.2H69.5049L64.7049 43H59.1849L54.3849 11.2H54.2649V43H48.5049V0.999997ZM90.3301 43.6C87.0901 43.6 84.6101 42.68 82.8901 40.84C81.1701 39 80.3101 36.4 80.3101 33.04V10.96C80.3101 7.6 81.1701 5 82.8901 3.16C84.6101 1.32 87.0901 0.399998 90.3301 0.399998C93.5701 0.399998 96.0501 1.32 97.7701 3.16C99.4901 5 100.35 7.6 100.35 10.96V33.04C100.35 36.4 99.4901 39 97.7701 40.84C96.0501 42.68 93.5701 43.6 90.3301 43.6ZM90.3301 37.6C92.6101 37.6 93.7501 36.22 93.7501 33.46V10.54C93.7501 7.78 92.6101 6.4 90.3301 6.4C88.0501 6.4 86.9101 7.78 86.9101 10.54V33.46C86.9101 36.22 88.0501 37.6 90.3301 37.6Z" fill="white"/>
</svg>
