<svg width="244" height="244" viewBox="0 0 244 244" fill="none" xmlns="http://www.w3.org/2000/svg">
<rect width="244" height="244" rx="122" fill="url(#paint0_linear)"/>
<path d="M121.5 42C77.5941 42 42 77.594 42 121.5C42 165.409 77.5941 201 121.5 201C165.41 201 201 165.409 201 121.5C201 77.5968 165.41 42.0038 121.499 42.0038L121.5 42ZM157.957 156.662C156.534 158.998 153.477 159.738 151.141 158.305C132.476 146.903 108.978 144.321 81.305 150.644C78.6383 151.251 75.9802 149.58 75.3727 146.913C74.7622 144.245 76.4264 141.587 79.0997 140.979C109.383 134.06 135.36 137.039 156.315 149.846C158.651 151.28 159.391 154.327 157.957 156.662ZM167.688 135.015C165.894 137.932 162.078 138.853 159.163 137.058C137.794 123.923 105.22 120.119 79.9437 127.792C76.6656 128.782 73.2034 126.935 72.2085 123.662C71.2212 120.384 73.0696 116.928 76.3419 115.932C105.214 107.171 141.107 111.415 165.647 126.495C168.561 128.289 169.482 132.105 167.688 135.015ZM168.524 112.474C142.901 97.255 100.628 95.8557 76.1644 103.281C72.2361 104.472 68.0818 102.254 66.8914 98.3259C65.7009 94.3956 67.9166 90.2441 71.8478 89.0498C99.9299 80.5246 146.613 82.1717 176.112 99.6844C179.653 101.782 180.812 106.345 178.714 109.874C176.625 113.407 172.049 114.572 168.527 112.474H168.524Z" fill="white"/>
<defs>
<linearGradient id="paint0_linear" x1="0" y1="0" x2="244" y2="244" gradientUnits="userSpaceOnUse">
<stop stop-color="#F27A54"/>
<stop offset="1" stop-color="#A154F2"/>
</linearGradient>
</defs>
</svg>
